<?xml version="1.0" encoding="UTF-8" standalone="no"?>
<!-- Created with Inkscape (http://www.inkscape.org/) -->

<svg
   version="1.1"
   id="svg1"
   width="2560"
   height="1440"
   viewBox="0 0 2560 1440"
   sodipodi:docname="banner.svg"
   inkscape:version="1.4 (86a8ad7, 2024-10-11)"
   xmlns:inkscape="http://www.inkscape.org/namespaces/inkscape"
   xmlns:sodipodi="http://sodipodi.sourceforge.net/DTD/sodipodi-0.dtd"
   xmlns="http://www.w3.org/2000/svg"
   xmlns:svg="http://www.w3.org/2000/svg">
  <defs
     id="defs1" />
  <sodipodi:namedview
     id="namedview1"
     pagecolor="#ffffff"
     bordercolor="#000000"
     borderopacity="0.25"
     inkscape:showpageshadow="2"
     inkscape:pageopacity="0.0"
     inkscape:pagecheckerboard="0"
     inkscape:deskcolor="#d1d1d1"
     inkscape:zoom="0.72"
     inkscape:cx="239.58333"
     inkscape:cy="70.138889"
     inkscape:window-width="1920"
     inkscape:window-height="1017"
     inkscape:window-x="-8"
     inkscape:window-y="-8"
     inkscape:window-maximized="1"
     inkscape:current-layer="g1" />
  <g
     inkscape:groupmode="layer"
     inkscape:label="Image"
     id="g1">
    <g
       id="g2"
       transform="translate(0.32254932,0.32254372)">
      <path
         style="fill:#fefefe"
         d="M 0,720 V 0 h 1280 1280 v 720 720 H 1280 0 Z"
         id="path9" />
      <path
         style="fill:#ebd78c"
         d="M 0,97 V 0 h 1280 1280 v 97 97 H 1280 0 Z"
         id="path8" />
      <path
         style="fill:#e8c960"
         d="M 0,97 V 0 h 108 108 l -0.0175,2.25 c -0.01,1.2375 -0.68289,6.3 -1.49619,11.25 -1.86374,11.343215 -1.86929,20.853465 -0.0152,26 0.79258,2.2 1.46332,6.475 1.49052,9.5 0.066,7.336439 1.66787,12.720461 4.6812,15.733786 1.36308,1.363084 2.32636,2.63031 2.14061,2.816056 -0.18575,0.185747 -2.26684,-0.09572 -4.62466,-0.62549 -4.95968,-1.114366 -6.16776,-0.674523 -5.47053,1.991722 0.9974,3.814039 -7.16804,6.664027 -13.83182,4.827731 -2.21542,-0.610492 -2.73522,-0.363064 -3.20983,1.527898 -0.31147,1.240996 -4.11056,6.191691 -8.44243,11.001543 -4.33187,4.809853 -8.47562,9.865361 -9.20835,11.234464 -2.81245,5.25512 0.33948,3.4618 9.51238,-5.412142 10.69856,-10.349888 17.35316,-14.109749 29.58581,-16.716059 10.47339,-2.231478 24.21697,-1.402437 33.2253,2.004218 7.79329,2.947168 10.81126,4.892998 19.10105,12.315361 5.532,4.953092 8.57964,6.515982 8.57964,4.399779 0,-1.476193 -9.05083,-9.994683 -15.62639,-14.707307 -3.36952,-2.414888 -9.62889,-6.32724 -13.90971,-8.694116 -10.06703,-5.566077 -11.48984,-8.023888 -11.39361,-19.681842 0.0865,-10.478465 0.68075,-12.085173 5.0085,-13.541437 1.88167,-0.63317 3.55398,-1.832823 3.71626,-2.665896 0.16228,-0.833073 -1.63772,-3.863471 -4,-6.734218 C 233.14078,17.556996 233,17.266628 233,9.9339042 233,-1.4029573 235.32866,-3.3800516 238.81126,5 241.1463,10.618734 243,11.503822 243,7 c 0,-5.4552478 3.67808,-2.7585871 4.6829,3.433361 0.43909,2.705785 1.93341,4.84317 5.95697,8.520474 C 259.32532,24.150023 273.44916,34 275.21449,34 275.79031,34 271.59011,29.158149 265.88071,23.240331 259.3184,16.438459 254.28296,10.185241 252.19136,6.2403308 L 248.88272,0 H 1404.4414 2560 v 97 97 H 1280 0 Z m 237.43152,90.5 c -0.11469,-1.67493 -4.91372,-2.81972 -8.77993,-2.09442 -3.88285,0.72843 -4.7958,2.134 -1.90159,2.92767 2.99946,0.82254 10.75349,0.21766 10.68152,-0.83325 z m -11.05257,-6.04515 c 0.73221,-1.90809 5.06598,-3.76029 15.07288,-6.44194 C 267.88149,167.93028 284,149.01796 284,125.0899 c 0,-8.72219 -1.55804,-6.79965 -2.97864,3.67546 -1.95294,14.40046 -6.51193,23.41409 -15.39344,30.43452 C 255.19723,167.44487 244.5584,171 230.31575,171 c -10.4366,0 -18.05718,-1.76219 -28.09722,-6.49725 -8.95792,-4.2247 -15.63135,-10.81707 -21.93852,-21.67205 -5.10811,-8.79134 -6.28443,-10.03689 -6.27063,-6.63972 0.0252,6.1993 13.33292,22.20489 25.03814,30.11409 3.05113,2.06165 8.90031,5.11288 12.99816,6.78052 7.60578,3.09519 11.95432,6.21946 11.95432,8.58872 0,1.82364 1.65348,1.6711 2.37895,-0.21946 z M 176,115.5 c 0,-3.025 -0.45,-5.5 -1,-5.5 -0.55,0 -1,2.475 -1,5.5 0,3.025 0.45,5.5 1,5.5 0.55,0 1,-2.475 1,-5.5 z M 292.47109,38.953216 c -0.9577,-1.549579 -9.46183,-5.295806 -10.24468,-4.512964 -1.02256,1.022567 2.26643,3.620882 6.37661,5.037542 4.18815,1.443531 5.01511,1.33138 3.86807,-0.524578 z M 157,31 c 0,-2.2 -0.45,-4 -1,-4 -0.55,0 -1,1.8 -1,4 0,2.2 0.45,4 1,4 0.55,0 1,-1.8 1,-4 z M 228,2.059017 C 228,0.92655765 228.45,0 229,0 c 0.55,0 1,0.64844235 1,1.440983 0,0.7925407 -0.45,1.7190983 -1,2.059017 -0.55,0.3399187 -1,-0.3085237 -1,-1.440983 z"
         id="path7" />
      <path
         style="fill:#daa027"
         d="M 0,97 V 0 H 74.932612 C 147.44835,0 149.88451,0.06076487 150.46317,1.8839487 152.87263,9.4755106 153.69533,35.865167 151.964,50.026234 149.09686,73.477418 141.70553,87.88621 126.61281,99.446297 122.42576,102.65332 119,105.5988 119,105.99183 c 0,0.39302 2.22214,0.50107 4.93809,0.2401 3.98466,-0.38288 5.45877,-0.0649 7.63486,1.64679 2.06176,1.62179 4.01896,2.10199 8.31191,2.03935 l 5.61514,-0.0819 -5.19974,-2.37654 c -5.60487,-2.56171 -9.34192,-6.81793 -7.55513,-8.604717 0.57334,-0.573338 1.87773,-0.879383 2.89865,-0.680098 1.3878,0.270899 1.77212,1.074168 1.52294,3.183145 -0.27027,2.28755 0.0133,2.75204 1.5,2.45707 1.391,-0.27598 1.83328,-1.27749 1.83328,-4.151342 0,-2.61305 0.56161,-4.104498 1.81104,-4.809479 1.39932,-0.789557 1.65918,-1.713264 1.14307,-4.063123 -0.4089,-1.86167 -0.29401,-2.810131 0.29621,-2.445359 1.60498,0.991937 2.21219,9.335798 3.86821,53.154313 0.87301,23.1 1.65348,43.575 1.73438,45.5 l 0.14709,3.5 -15.5,-0.0671 -15.5,-0.0671 7,1.70549 c 6.82845,1.66369 5.37645,1.70822 -59.25,1.81708 L 0,194 Z m 110.809,12.52433 c 1.05931,-1.05931 -0.76155,-1.70423 -4.98152,-1.76437 C 100.69896,107.68687 97,108.71434 97,110.21199 c 0,1.07666 12.67592,0.44542 13.809,-0.68766 z M 310,190.91661 c 0,-5.70917 4.07994,-19.34975 8.5677,-28.64459 3.50622,-7.26194 5.87988,-10.61098 11.1412,-15.71935 6.46374,-6.27584 7.80917,-8.97067 3.26437,-6.53836 -1.20892,0.64699 -4.84355,3.60845 -8.07696,6.58102 -5.40151,4.96576 -9.89631,6.93951 -9.89631,4.34565 0,-0.58246 -0.38634,-0.82024 -0.85853,-0.52841 -0.4722,0.29183 -1.10989,3.30251 -1.41709,6.69039 -0.62143,6.85325 -2.35983,9.46491 -5.61287,8.43243 -2.55478,-0.81085 -2.64576,-2.3472 -0.41593,-7.02321 1.46967,-3.08193 1.53629,-4.32692 0.5,-9.34413 -1.62038,-7.84512 -1.51622,-10.27696 0.72601,-16.9496 1.05687,-3.14515 2.41372,-10.14961 3.01521,-15.56547 1.41225,-12.7159 1.53056,-53.29352 0.16586,-56.882966 -0.61135,-1.60798 -2.06523,-2.9735 -3.56729,-3.350493 -3.11637,-0.782159 -3.16416,-1.481873 -0.28537,-4.178595 3.54317,-3.319088 7.21281,-4.263635 21.99547,-5.661523 13.19832,-1.248069 15.83774,-1.829531 14.47781,-3.189457 -0.33553,-0.33553 -7.49803,-1.003385 -15.91667,-1.484122 C 309.55624,40.863657 298.95919,39.103051 289.51226,35.543557 274.70603,29.964741 259.58227,18.004607 253.17662,6.808694 251.42948,3.755013 250,0.9738238 250,0.62827342 250,0.28272304 769.75,0 1405,0 h 1155 v 97 97 H 1435 310 Z m -95.51906,-22.3373 c -8.42121,-1.90204 -12.1712,-3.64997 -18.34967,-8.55303 -7.84921,-6.22893 -10.71957,-9.67874 -14.79064,-17.77648 -3.26873,-6.5018 -3.69376,-8.2633 -4.11758,-17.06485 -0.55585,-11.54326 1.10154,-18.66194 6.20089,-26.633511 13.81227,-21.592042 48.20129,-29.837286 73.21027,-17.553172 4.09876,2.013264 8.26936,5.276424 12.5689,9.834159 5.41831,5.743696 6.81527,7.993626 8.84418,14.244344 3.06618,9.44633 3.37475,25.28281 0.6652,34.13959 -3.55519,11.62095 -15.32044,23.22403 -28.42339,28.03159 -7.31614,2.68434 -26.63739,3.40271 -35.80816,1.33136 z"
         id="path6" />
      <path
         style="fill:#946f1d"
         d="M 0,97 V 0 H 18.354903 36.709805 L 29.583999,14.25 C 17.447093,38.521066 11.107745,56.286425 7.3708567,76.5 c -1.5831519,8.563585 -1.8502933,15.314735 -1.8597794,47 -0.011953,39.92376 0.3492084,43.59639 6.0389287,61.40957 1.333454,4.17474 2.430207,7.92793 2.437228,8.34043 C 13.994255,193.6625 10.85,194 7,194 H 0 Z m 29.602641,92.25 C 27.595124,183.12988 23.358716,165.41266 21.363985,154.79484 19.266275,143.62888 18.416858,110.07017 19.910454,97.368861 23.559798,66.335394 35.859425,31.071779 51.429006,7.0036681 L 55.959656,0 h 46.361044 46.36104 l 1.151,5.25 c 5.97168,27.238205 2.95684,55.097882 -8.07368,74.607803 -6.12895,10.840402 -21.14881,24.104777 -27.32669,24.132817 -3.64134,0.0165 -15.721335,3.65617 -22.647692,6.82365 -22.425959,10.25556 -40.441048,28.75089 -48.273851,49.56074 -2.494451,6.62714 -4.951219,17.98718 -6.028357,27.87499 -0.599936,5.50723 -0.746613,5.75 -3.47406,5.75 -2.511882,0 -3.031405,-0.56011 -4.405769,-4.75 z m 280.916209,0 c 1.96458,-14.54903 6.68353,-25.13737 16.45713,-36.92633 8.70187,-10.49623 13.18077,-13.25051 23.29706,-14.32644 4.52483,-0.48124 10.84614,-1.78915 14.04735,-2.90646 17.13315,-5.97996 34.30612,-22.33279 44.20173,-42.09077 7.739,-15.452022 10.36003,-26.248346 11.45389,-47.179985 0.45068,-8.623992 1.117,-16.161492 1.48072,-16.75 2.00591,-3.245641 4.58146,1.279024 10.5504,18.534711 15.96958,46.166677 16.78094,90.141754 2.49349,135.145274 L 430.92903,194 h -60.52579 -60.52579 z m 139.76514,3.45232 c 1.40681,-3.6661 4.84894,-17.36571 6.58352,-26.20232 3.37109,-17.17359 4.45215,-32.40358 3.83143,-53.97761 C 459.8999,84.750035 456.29287,63.390205 448.79597,42.036226 445.37872,32.302603 436.48411,13.133186 432.0143,5.868817 430.35644,3.1744426 429,0.75171478 429,0.48497728 429,0.21823978 908.475,0 1494.5,0 H 2560 v 97 97 H 1504.893 C 640.54428,194 449.87605,193.76539 450.28399,192.70232 Z M 214.5,168.40723 c -14.06638,-3.14044 -24.59923,-11.74874 -31.5577,-25.79152 -10.89509,-21.98719 -5.54413,-43.834895 13.98929,-57.117627 18.63868,-12.674312 45.55434,-13.570016 63.45498,-2.111666 19.40148,12.41905 25.09951,37.953983 13.99224,62.704283 -2.69259,5.99988 -9.4115,13.19075 -15.60585,16.70206 -10.90866,6.18364 -30.56079,8.67582 -44.27296,5.61447 z M 301.7741,38.981568 C 289.73506,37.081649 271.49661,27.30297 262.31102,17.823159 258.418,13.805437 251,2.6470947 251,0.8088285 251,0.36397282 284.75,0 326,0 c 41.25,0 75,0.24734697 75,0.54965993 0,0.30231296 -0.73323,1.98981297 -1.62939,3.74999997 -7.49215,14.7155701 -24.93339,28.0097211 -43.07013,32.8291381 -6.39,1.697994 -11.50728,2.1346 -28.30048,2.414595 -11.275,0.187989 -23.07666,-0.06483 -26.2259,-0.561825 z"
         id="path5" />
      <path
         style="fill:#684f16"
         d="M 0,97 V 0 H 18 C 27.9,0 36,0.18377691 36,0.40839314 36,0.63300937 32.875113,7.0859304 29.055807,14.748218 7.5706266,57.851757 2.6900834,83.211778 4.9510664,140 5.9426328,164.90478 7.4877727,174.9895 12.439613,188.87573 13.297826,191.28238 14,193.41988 14,193.62573 14,193.83158 10.85,194 7,194 H 0 Z m 29.652918,91.80795 C 15.229519,138.52944 15.516246,95.853687 30.57279,51.896365 35.688431,36.961338 43.43444,20.392471 50.977634,8.25 L 56.102731,0 h 45.910089 45.91009 l 0.99386,3.75 c 2.95455,11.148001 3.39291,14.961291 3.36242,29.25 -0.0287,13.446818 -0.37954,16.817685 -2.64864,25.447547 -3.87918,14.753313 -9.61105,25.552289 -18.19378,34.277541 -7.07038,7.18778 -13.6632,11.211042 -18.43995,11.252952 -4.77548,0.0419 -15.840796,3.84722 -25.113814,8.63654 -19.514144,10.07867 -32.118972,22.37243 -40.89463,39.88542 -5.517417,11.01074 -7.355443,17.28234 -9.234926,31.51084 -1.210628,9.16498 -1.344398,9.49968 -3.915645,9.79711 -2.433044,0.28144 -2.793263,-0.14894 -4.184887,-5 z m 281.644502,-1.55002 c 1.11384,-12.78354 7.04203,-25.09924 17.56244,-36.48569 7.767,-8.40637 12.6262,-11.76831 17.04018,-11.7896 6.82774,-0.0329 17.62292,-2.95807 25.59996,-6.93674 22.76933,-11.35654 40.62418,-36.507423 46.6134,-65.661052 1.02992,-5.013334 2.21324,-15.551975 2.62959,-23.419203 0.47904,-9.051607 1.16861,-14.440321 1.87794,-14.675157 1.46323,-0.484434 4.36617,5.803239 9.4134,20.38909 C 440.5742,73.358764 444,93.442259 444,118.82745 c 0,23.88765 -2.90748,42.66347 -9.85986,63.67255 l -3.64014,11 -59.8957,0.25793 -59.8957,0.25792 z m 139.715,5.49207 c 0.007,-0.6875 1.11502,-5.23572 2.46264,-10.10716 C 464.09313,144.26005 463.86105,93.342549 452.88994,54.270941 448.36239,38.146912 440.62689,19.971413 432.02661,5.25 L 428.95954,0 H 1494.4798 2560 v 97 97 H 1505.5 C 662.56004,194 451.00249,193.74922 451.01242,192.75 Z M 219.5,169.03265 c -12.65846,-1.99037 -17.06299,-3.95266 -24.85337,-11.07263 -6.56552,-6.00052 -11.6081,-13.8983 -14.65954,-22.96002 -3.05453,-9.0709 -2.49539,-22.91532 1.25921,-31.17819 4.90891,-10.803221 16.27482,-20.418618 29.56326,-25.010099 5.77394,-1.995039 8.60824,-2.307638 20.69044,-2.28198 12.1256,0.02575 14.75233,0.330062 19.6192,2.272913 8.55833,3.416474 16.17889,9.394055 20.80186,16.317004 5.80295,8.689982 7.5995,15.264672 7.48176,27.380352 -0.16659,17.14273 -6.60358,30.8079 -18.09869,38.42194 -9.54432,6.3219 -29.07788,10.11174 -41.80413,8.11071 z M 304.55847,38.932669 C 284.85021,36.648601 262.76313,22.299078 254.19136,6.2101929 L 250.88272,0 H 326 401.11728 l -3.13937,5.8900622 c -6.4284,12.0609218 -22.1093,24.5148798 -37.23203,29.5701188 -12.21244,4.082387 -37.46083,5.642785 -56.18741,3.472488 z"
         id="path4" />
      <path
         style="fill:#4b3b13"
         d="M 0,97 V 0 H 18.083333 C 28.029167,0 36.005328,0.3375 35.808136,0.75 35.610945,1.1625 32.033571,8.475 27.858417,17 9.9389555,53.588691 5.5312396,71.205131 4.3391774,111 3.3201565,145.01819 5.8241965,170.16906 11.971405,187.65897 13.087132,190.83341 14,193.55878 14,193.71534 14,193.8719 10.85,194 7,194 H 0 Z m 31.127033,95.23736 C 29.51271,189.22097 24.135001,166.97961 21.935532,154.22275 13.593696,105.84032 24.157415,52.939264 51.05176,8.414308 L 56.134243,0 h 45.894337 45.89433 l 0.97892,3.75 c 3.63813,13.936802 4.43543,36.003964 1.77944,49.25 -3.50001,17.455332 -11.65881,33.401709 -21.55247,42.124314 -6.15625,5.427566 -11.05987,7.816246 -18.47975,9.001966 -14.367726,2.296 -34.759407,13.30405 -47.238296,25.50066 -15.027927,14.688 -22.988454,31.35417 -25.732239,53.87306 -1.101101,9.037 -1.426674,10.02992 -3.380815,10.31068 -1.324345,0.19028 -2.553142,-0.41946 -3.170667,-1.57332 z m 279.890327,-1.47949 c 0.0738,-13.85077 9.11209,-32.13559 21.70041,-43.9009 6.50516,-6.07985 9.41043,-7.44777 17.5129,-8.2458 24.38394,-2.4016 46.48582,-20.1638 59.86576,-48.11117 7.43677,-15.533549 10.7937,-31.103459 10.88801,-50.5 0.0482,-9.91439 1.12378,-13.843411 3.01128,-11 1.94181,2.925225 8.81167,21.657527 11.919,32.5 6.15963,21.492917 7.50847,31.605233 7.53631,56.5 0.0158,14.0857 -0.46964,25.49175 -1.29794,30.5 -1.87687,11.34828 -5.83497,27.64603 -8.98588,37 l -2.69483,8 -59.73619,0.25787 L 311,194.01574 Z M 451,193.56758 c 0,-0.23783 1.30569,-5.52533 2.90154,-11.75 C 469.43506,121.22852 461.4582,55.27434 432.65226,6.1244755 L 429.0628,0 H 1494.5314 2560 v 97 97 H 1505.5 C 925.525,194 451,193.80541 451,193.56758 Z M 220.81019,168.85434 c -3.6794,-0.37259 -9.0794,-1.37295 -12,-2.22304 -10.56675,-3.07561 -22.45479,-15.55943 -27.94206,-29.3424 -1.88389,-4.73198 -2.31047,-7.71542 -2.3364,-16.34076 -0.0307,-10.22011 0.087,-10.79214 3.74525,-18.19406 8.34303,-16.880972 26.45699,-26.714586 49.22302,-26.721935 27.26746,-0.0088 45.55048,15.863685 48.02211,41.690605 1.2369,12.92481 -4.91921,31.78952 -12.6543,38.77771 -10.49862,9.48487 -28.00876,14.18156 -46.05762,12.35388 z M 306.23023,39.001365 C 293.31177,37.638465 280.0662,31.959581 268.89561,22.994593 261.39315,16.973474 258.42778,13.529605 254.04698,5.75 L 250.80908,0 h 74.59546 C 376.37344,0 400,0.32934711 400,1.0398381 c 0,3.0562407 -5.18247,10.3760239 -12.37758,17.4822359 -9.80475,9.683616 -22.33944,16.495131 -34.92249,18.977338 -9.4692,1.867951 -35.13695,2.697561 -46.4697,1.501953 z"
         id="path3" />
      <path
         style="fill:#201c0b"
         d="m 458.16052,193.25569 c -6.17479,-0.29187 -7.24394,-0.59591 -6.73739,-1.91596 1.41519,-3.68794 5.64854,-21.54118 7.06678,-29.80262 C 467.52067,108.93155 458.26015,50.087947 434.45574,8.8181194 432.00508,4.5694063 430,0.84721945 430,0.54659319 430,0.24596694 909.25,0 1495,0 h 1065 v 97 97 L 1512.75,193.8013 C 936.7625,193.69202 462.19723,193.44649 458.16052,193.25569 Z M 0,96.5 V 0 H 18.083333 C 28.029167,0 36.011642,0.3375 35.822168,0.75 35.632694,1.1625 32.50344,7.35 28.868269,14.5 16.560876,38.707354 9.5078497,58.926465 6.2866914,79.235253 4.8220506,88.469533 4.5082193,96.538364 4.5455998,124 c 0.049276,36.20037 0.7789194,43.54548 5.9270672,59.66603 1.375991,4.30868 2.507546,8.17147 2.514567,8.58397 C 12.994255,192.6625 10.075,193 6.5,193 H 0 Z m 29.231508,89.25 C 26.332375,175.62911 22.307065,156.92283 21.108276,148 14.831919,101.28381 25.158056,52.360774 50.150242,10.405356 L 56.348549,0 h 45.745571 45.74557 l 1.71862,7.25 c 2.58862,10.920146 3.08842,34.001249 0.9793,45.225382 C 147.29805,69.7154 140.04513,84.229893 129.769,94.037412 123.7284,99.802547 116.02502,104 111.48516,104 99.337785,104 73.030556,118.63649 60.252141,132.5044 48.239113,145.54166 40.121569,162.85095 37.917436,180.12938 36.292449,192.86784 36.248474,193 33.635084,193 c -2.030822,0 -2.590993,-0.92226 -4.403576,-7.25 z m 282.252002,1.53567 c 1.65987,-13.28516 7.92497,-25.85311 18.9735,-38.06136 6.43524,-7.11072 11.51885,-9.85585 19.54299,-10.55314 15.27443,-1.32733 28.08161,-7.77702 41.04688,-20.67117 18.23384,-18.133812 28.40481,-42.058846 29.54575,-69.5 0.27441,-6.6 0.73988,-13.972377 1.03438,-16.383059 0.45422,-3.718159 0.74312,-4.173252 1.90448,-3 0.75297,0.760682 2.93538,5.448224 4.8498,10.416759 18.68903,48.50409 20.44297,94.62136 5.4468,143.2163 l -3.1631,10.25 h -59.94772 -59.94772 z m -99.69768,-20.15242 c -12.14241,-3.16747 -22.43082,-12.31753 -28.75898,-25.57699 -7.05806,-14.78884 -6.6623,-29.24514 1.15695,-42.260523 8.34808,-13.895621 27.15926,-23.226467 46.92971,-23.278373 25.84621,-0.06786 44.51209,15.06588 47.86591,38.808236 1.93209,13.67771 -3.38926,32.66887 -11.37212,40.58555 -11.84713,11.74888 -36.15273,16.85289 -55.82147,11.7221 z M 299.34449,37.958711 C 292.88129,36.679981 280.75435,31.291327 274.33027,26.843542 263.82828,19.572362 254.61526,9.1742645 252.53967,2.25 L 251.86522,0 H 326 400.13478 l -0.69929,2.25 c -1.33286,4.2885303 -7.67863,12.806896 -13.29358,17.844876 -10.9271,9.804264 -23.06598,15.653219 -36.96087,17.809084 -8.06667,1.251587 -43.59002,1.290613 -49.83655,0.05475 z"
         id="path2" />
    </g>
  </g>
</svg>
