<?xml version="1.0" encoding="UTF-8" standalone="no"?>
<!-- Created with Inkscape (http://www.inkscape.org/) -->

<svg
   version="1.1"
   id="svg1"
   width="150"
   height="150"
   viewBox="0 0 150 150"
   sodipodi:docname="logosinletra.svg"
   inkscape:version="1.4 (86a8ad7, 2024-10-11)"
   inkscape:export-filename="logosinletra.png"
   inkscape:export-xdpi="96"
   inkscape:export-ydpi="96"
   xmlns:inkscape="http://www.inkscape.org/namespaces/inkscape"
   xmlns:sodipodi="http://sodipodi.sourceforge.net/DTD/sodipodi-0.dtd"
   xmlns="http://www.w3.org/2000/svg"
   xmlns:svg="http://www.w3.org/2000/svg">
  <defs
     id="defs1" />
  <sodipodi:namedview
     id="namedview1"
     pagecolor="#ffffff"
     bordercolor="#000000"
     borderopacity="0.25"
     inkscape:showpageshadow="2"
     inkscape:pageopacity="0.0"
     inkscape:pagecheckerboard="0"
     inkscape:deskcolor="#d1d1d1"
     inkscape:zoom="5.4333333"
     inkscape:cx="75"
     inkscape:cy="74.815951"
     inkscape:window-width="1920"
     inkscape:window-height="1017"
     inkscape:window-x="-8"
     inkscape:window-y="-8"
     inkscape:window-maximized="1"
     inkscape:current-layer="g1" />
  <g
     inkscape:groupmode="layer"
     inkscape:label="Image"
     id="g1">
    <g
       id="g17"
       transform="translate(0.18404924,0.18404911)">
      <path
         style="fill:#edd98e"
         d="M 0,75 V 0 h 75 75 v 75 75 H 75 0 Z"
         id="path20" />
      <path
         style="fill:#eacb61"
         d="M 0,75 V 0 h 75 75 v 75 75 H 75 0 Z m 84.5,71.15343 c 2.555895,-0.46728 -0.873855,-0.72544 -9.5,-0.71506 -7.425,0.009 -11.925,0.30472 -10,0.6573 4.899675,0.89741 14.747875,0.92658 19.5,0.0578 z m 7.229167,-1.7576 c -0.332292,-0.33229 -1.194792,-0.36781 -1.916667,-0.0789 -0.797733,0.31922 -0.560776,0.55618 0.604167,0.60416 1.054166,0.0434 1.644791,-0.19293 1.3125,-0.52522 z M 83.5,142.02138 c 1.768664,-0.43745 -2.130569,-0.72351 -9.5,-0.69695 -8.143448,0.0293 -10.931641,0.27684 -8,0.71011 6.067909,0.8968 13.844527,0.89095 17.5,-0.0132 z m 2.161592,-11.63968 c -1.561124,-0.84602 -3.088957,-1.28767 -3.395184,-0.98144 -0.306227,0.30623 0.521057,0.98792 1.838408,1.51487 3.741449,1.49662 4.697949,1.16887 1.556776,-0.53343 z M 78.423705,126.25 C 76.808623,124.7375 73.743641,120.04023 71.612632,115.81162 67.656894,107.96216 64.444725,104.16025 60,102.06698 c -2.114671,-0.99592 -2.037605,-0.82271 0.5,1.12375 5.208488,3.99514 7.173416,6.64855 9.355781,12.63389 C 71.851897,121.29915 77.983751,129 80.346775,129 c 0.557393,0 -0.307989,-1.2375 -1.92307,-2.75 z M 75.947447,94.96752 C 75.251103,94.537156 74.07806,94.416551 73.340684,94.699509 71.3513,95.462907 71.697312,95.75 74.606763,95.75 c 1.666765,0 2.150215,-0.282162 1.340684,-0.78248 z M 77,91.534193 C 85.325196,89.828548 91.147,83.223427 90.883999,75.782119 90.764455,72.399787 90.548874,72.933356 89.554588,79.072438 88.202912,87.418172 78.045718,92.390617 68.276036,89.489333 63.174128,87.974229 60.333821,85.568774 57.661633,80.5 c -0.869857,-1.65 -1.599575,-2.640153 -1.621595,-2.20034 -0.187213,3.739151 6.744087,10.813931 12.434558,12.691956 1.938972,0.639918 3.532295,1.69109 3.540717,2.335936 0.01114,0.853265 0.215321,0.866354 0.75,0.04808 C 73.169391,92.75723 75.075,91.928582 77,91.534193 Z M 56.692991,71.269032 C 56.439447,70.296064 56.215328,70.85 56.194949,72.5 c -0.02038,1.65 0.187065,2.446064 0.460988,1.769032 0.273923,-0.677033 0.290597,-2.027033 0.03705,-3 z M 64.869116,61.60316 C 72.042589,57.990347 80.88911,59.042956 85.958669,64.112515 87.631401,65.785247 89,66.709233 89,66.165817 89,64.846171 84.28243,60.96765 79.703305,58.522596 76.318611,56.715316 76,56.177603 76,52.272596 76,49.1414 76.400716,48 77.5,48 c 2.145903,0 1.855951,-1.36905 -0.871229,-4.113636 -1.858464,-1.870326 -2.261472,-3.122804 -1.863666,-5.791951 l 0.507564,-3.405588 1.282447,2.905588 c 1.023473,2.318842 1.30194,2.501713 1.378978,0.905587 0.07785,-1.612875 0.274358,-1.718898 1.015236,-0.547746 0.505287,0.79874 0.714137,1.783251 0.46411,2.187802 C 78.99548,40.816331 87.125914,47 88.433056,47 88.748044,47 87.202223,45.370611 84.997899,43.379137 82.422469,41.052391 80.540127,38.215302 79.731217,35.441132 76.95412,25.91703 68.598905,18.467603 58.5,16.51159 c -1.842115,-0.356791 -1.070191,0.204658 2,1.454674 2.75,1.119651 7.025,3.903728 9.5,6.186836 2.475,2.283108 3.9375,3.831102 3.25,3.439986 C 72.459599,27.14343 72,27.51217 72,28.595971 72,30.182653 71.851433,30.175524 70,28.5 c -1.950739,-1.765394 -2,-1.746633 -2,0.761679 0,1.41441 0.506459,2.740474 1.125465,2.946809 0.827583,0.275861 0.798205,2.315374 -0.110994,7.705719 -0.680053,4.031809 -0.849012,7.612989 -0.375465,7.958178 0.473547,0.345188 0.839009,2.202615 0.812139,4.127615 -0.02829,2.026474 0.603225,4.00532 1.5,4.700263 1.296115,1.004406 1.156186,1.101086 -0.857517,0.592477 -1.597846,-0.403574 -2.180956,-0.243057 -1.735479,0.47774 0.822349,1.330589 -2.856228,2.637304 -4.5992,1.633742 -0.692422,-0.39868 -0.981449,-0.412726 -0.642282,-0.03121 0.339166,0.381512 -0.898334,2.208659 -2.75,4.060325 C 58.515,65.285 57,67.329526 57,67.976725 c 0,0.647199 1.178602,-0.223963 2.619116,-1.935917 1.440514,-1.711953 3.803014,-3.708895 5.25,-4.437648 z M 73.157895,36 c 0,-1.375 0.226973,-1.9375 0.504386,-1.25 0.277412,0.6875 0.277412,1.8125 0,2.5 -0.277413,0.6875 -0.504386,0.125 -0.504386,-1.25 z M 73,31 c 0,-0.55 0.476558,-1 1.059017,-1 0.582459,0 0.780902,0.45 0.440983,1 -0.339919,0.55 -0.816476,1 -1.059017,1 C 73.198442,32 73,31.55 73,31 Z m 20,17 c -0.825,-0.533156 -1.95,-0.969374 -2.5,-0.969374 -0.55,0 -0.325,0.436218 0.5,0.969374 0.825,0.533156 1.95,0.969374 2.5,0.969374 0.55,0 0.325,-0.436218 -0.5,-0.969374 z M 50.662281,44.75 c -0.277413,-0.6875 -0.504386,-0.125 -0.504386,1.25 0,1.375 0.226973,1.9375 0.504386,1.25 0.277412,-0.6875 0.277412,-1.8125 0,-2.5 z M 45.492921,9.0114544 C 45.84326,8.4445943 45.441863,8.2769469 44.551938,8.6184432 42.819521,9.2832341 42.502551,10 43.940983,10 44.458524,10 45.156896,9.5551545 45.492921,9.0114544 Z M 96.737636,9.404303 C 96.410003,9.0766696 92.887519,7.9541855 88.909894,6.9098938 79.533127,4.4481035 78.908516,3.6243128 87,4.3909639 91.893826,4.8546436 92.908367,4.7536531 91.105729,3.9822673 84.524663,1.1660944 65.346469,1.7986242 53.743553,5.2145362 47.651253,7.0081163 50.151668,7.1759496 56.964035,5.430702 60.776939,4.4538813 63.586296,4.1862961 64.14658,4.7465799 64.706864,5.3068637 62.872131,6.1579365 59.455809,6.9224759 56.369768,7.6131016 54.045028,8.378361 54.289719,8.6230524 54.53441,8.8677437 56.931825,8.5387187 59.617306,7.8918855 66.496702,6.2348936 84.401382,6.4810151 90.5,8.3164057 96.137758,10.013099 97.601769,10.268436 96.737636,9.404303 Z M 66.8125,4.316886 c 0.721875,-0.2888706 1.584375,-0.2533443 1.916667,0.078947 0.332291,0.3322917 -0.258334,0.5686404 -1.3125,0.5252193 -1.164943,-0.047984 -1.4019,-0.28494 -0.604167,-0.6041663 z M 98,6 C 97.175,5.4668441 95.825,5.0553632 95,5.085598 94.010945,5.1218453 94.18126,5.4333179 95.5,6 98.249085,7.1813224 99.827966,7.1813224 98,6 Z"
         id="path19" />
      <path
         style="fill:#dca128"
         d="M 0,75 V 0 h 75 75 v 75 75 H 75 0 Z m 96.5,68.53157 c 7.80363,-2.59131 14.56683,-5.97239 19.38486,-9.69094 1.31167,-1.01235 1.90073,-1.84063 1.30902,-1.84063 -0.59172,0 -1.35794,0.45643 -1.70271,1.01429 -1.02907,1.66507 -7.88287,4.74636 -9.38037,4.21717 -0.84825,-0.29976 -1.11731,-0.051 -0.69098,0.63881 0.85184,1.37831 -1.35806,1.46214 -3.41982,0.12973 -1.04395,-0.67465 -1.11996,-1.01203 -0.25,-1.10969 2.4264,-0.27236 2.7736,-0.42253 5.25,-2.27066 1.89713,-1.41582 2.01771,-1.68821 0.5,-1.12957 -1.1,0.40488 -5.6,2.08385 -10,3.73102 -15.080783,5.64561 -35.55887,4.96024 -50.8869,-1.70312 -4.249075,-1.84715 -7.231823,-2.7635 -6.628328,-2.03633 0.603495,0.72717 2.292836,1.62219 3.754091,1.98894 2.083004,0.52281 2.344121,0.86304 1.208982,1.57529 -1.75587,1.10174 -4.521205,0.34439 -8.197845,-2.24517 -1.5125,-1.06529 -2.75,-1.512 -2.75,-0.99267 0,2.28383 17.814745,10.00594 28.075186,12.16967 8.228881,1.73532 25.535993,0.50551 34.424814,-2.44614 z m -46.979911,-3.89322 c -1.024194,-0.74891 -2.797702,-1.18967 -3.94113,-0.97948 -2.020601,0.37145 -2.022818,0.35762 -0.07896,-0.49285 1.745617,-0.76374 6.5,1.02756 6.5,2.44899 0,0.65267 -0.545431,0.43786 -2.479911,-0.97666 z M 106,131.90552 c 0.93568,-0.54347 0.2188,-0.63086 -1.90549,-0.23229 -2.76309,0.51844 -3.24563,0.37373 -2.55804,-0.76713 0.71991,-1.19449 0.59473,-1.20114 -0.83178,-0.0442 -0.938841,0.76141 -2.45642,1.0606 -3.441955,0.67858 -1.654328,-0.64128 -1.658058,-0.76041 -0.06065,-1.93709 1.181072,-0.87 1.504462,-1.99603 1.05647,-3.67858 L 97.612941,123.5 96.820565,126 c -0.756356,2.38636 -0.655029,1.09109 0.625827,-8 0.193726,-1.375 -0.02672,-2.96509 -0.489879,-3.53354 -0.46316,-0.56844 -0.519835,-1.55499 -0.125946,-2.19231 0.431415,-0.69805 1.139428,0.19353 1.780707,2.24238 0.644042,2.05767 0.68232,3.16492 0.0969,2.80311 -0.532202,-0.32892 -0.785511,-0.0516 -0.562909,0.61616 0.222603,0.66781 0.767888,1.29295 1.211746,1.3892 0.443857,0.0962 2.803009,2.0875 5.242559,4.425 2.43955,2.3375 4.99015,4.24703 5.66799,4.24341 0.67784,-0.004 0.028,-0.80096 -1.44418,-1.77185 C 101.99117,121.71563 98.525018,113.6953 98.571633,102.5 98.609434,93.421685 101.42943,85.380573 105.77379,81.963294 107.14655,80.883482 107.82039,80 107.27122,80 c -0.54917,0 -2.14139,1.142898 -3.53827,2.539773 -1.79757,1.79757 -2.69104,2.16286 -3.05741,1.25 -0.28471,-0.709375 -0.55317,-0.127273 -0.59659,1.29356 -0.08911,2.9159 -0.923553,4.130741 -2.266988,3.300453 C 97.286865,88.059258 97.35231,87.280418 97.966903,86.539879 98.6471,85.720292 98.708044,84.399673 98.13585,82.878907 97.54337,81.304229 97.659851,79.654834 98.480399,78 99.200677,76.547386 99.780085,70.996241 99.863386,64.75 99.985764,55.573478 99.776244,54 98.431946,54 c -1.399825,0 -1.408136,-0.166667 -0.0748,-1.5 0.840827,-0.840827 3.399044,-1.530887 5.821424,-1.570285 7.27041,-0.118249 8.19584,-1.427488 1.03413,-1.463012 C 91.923935,49.400785 81.80338,43.355816 79.300277,33.989312 76.169173,22.272852 60.47126,13.352609 46.635025,15.427481 c -2.400736,0.360012 -5.213236,1.347843 -6.25,2.195179 -1.831793,1.497104 -1.828546,1.520981 0.114975,0.845521 2.761192,-0.959636 6.27944,-1.623242 4.75,-0.895936 C 43.30485,18.497237 43.778927,20 46.015884,20 c 1.601033,0 1.971137,0.587262 1.798443,2.853672 -0.168091,2.205991 -0.625624,2.74693 -2.015885,2.383368 C 44.809299,24.978374 44,24.452567 44,24.068581 44,23.397683 37.5831,20 36.316035,20 c -0.338862,0 1.203719,1.318279 3.427958,2.929509 2.617173,1.89587 5.048747,4.983193 6.891497,8.75 2.492028,5.094012 2.846014,6.943817 2.836105,14.820491 -0.01346,10.695222 -2.519155,17.040711 -8.358507,21.167262 -2.70424,1.911031 -3.047366,2.423398 -1.364084,2.036897 1.236952,-0.28402 2.50101,-0.108645 2.809017,0.389721 0.308007,0.498366 1.545955,0.877596 2.750996,0.842734 L 47.5,70.873227 45.25,69.968838 C 42.957897,69.047525 42.136509,67 44.059017,67 c 0.582459,0 0.780902,0.45 0.440983,1 -0.339919,0.55 -0.09333,1 0.547972,1 0.641303,0 0.906984,-0.675 0.590402,-1.5 -0.316583,-0.825 -0.11317,-1.5 0.452028,-1.5 0.565197,0 0.749517,-0.45 0.409598,-1 -0.339919,-0.55 -0.253499,-1 0.192044,-1 0.445543,0 0.925943,6.4125 1.067555,14.25 0.141613,7.8375 0.445885,15.226606 0.67616,16.420236 0.396586,2.055692 0.119045,2.149829 -5.258538,1.783589 L 37.5,96.067178 l 6.77842,1.432188 c 8.447406,1.784823 15.361793,4.795124 19.074071,8.304244 1.56887,1.48302 4.538332,6.29639 6.598803,10.69639 4.575505,9.77069 10.334109,14.42968 20.375106,16.48446 4.521075,0.92518 13.25871,0.3237 15.6736,-1.07894 z M 64.96189,87.75 C 59.771225,85.1325 57.002005,80.52096 57.005292,74.5 57.009851,66.151309 64.223651,60 74.009822,60 c 5.659265,0 9.284699,1.519651 12.927359,5.418682 3.441826,3.684063 4.029011,12.717914 1.127101,17.340458 C 83.474101,90.070983 73.736277,92.174666 64.96189,87.75 Z M 38,131.61869 c 0,-0.20972 -1.6875,-1.60029 -3.75,-3.09014 l -3.75,-2.70883 3.265777,3.09014 C 36.80467,131.78532 38,132.55003 38,131.61869 Z m 86,-4.26888 c 0,-0.72338 -3.85397,1.6049 -4.56743,2.75929 -0.37335,0.6041 0.50159,0.32492 1.94431,-0.62038 C 122.81959,128.54341 124,127.5809 124,127.34981 Z m -3.62572,-3.29425 c -0.23641,-0.24445 -1.42984,0.60787 -2.65206,1.89404 l -2.22222,2.3385 2.65206,-1.89405 c 1.45863,-1.04173 2.45863,-2.09405 2.22222,-2.33849 z M 100,122 c 0,-0.55 -0.476558,-1 -1.059017,-1 -0.582459,0 -0.780902,0.45 -0.440983,1 0.339919,0.55 0.816476,1 1.059017,1 C 99.801558,123 100,122.55 100,122 Z M 35.134665,70.202755 c -1.300934,-0.204647 -2.777573,0.04015 -3.281419,0.543999 -0.554777,0.554777 0.378117,0.701528 2.365336,0.372084 2.776922,-0.460363 2.917763,-0.601205 0.916083,-0.916083 z M 21.127555,32.25 C 22.371426,30.663944 22.336056,30.628574 20.75,31.872445 19.084252,33.178814 18.554521,34 19.377555,34 c 0.207656,0 0.995156,-0.7875 1.75,-1.75 z m -1,-4 C 21.371426,26.663944 21.336056,26.628574 19.75,27.872445 18.7875,28.627289 18,29.414789 18,29.622445 18,30.445479 18.821186,29.915748 20.127555,28.25 Z M 27,25.5 C 28.291745,24.125 29.123628,23 28.848628,23 28.573628,23 27.291745,24.125 26,25.5 24.708255,26.875 23.876372,28 24.151372,28 24.426372,28 25.708255,26.875 27,25.5 Z m 95.61207,-5.07699 C 116.05309,14.387829 106.21701,8.7094254 96.5,5.3484248 89.262726,2.845135 87.16523,2.5791007 74.5,2.5580708 60.066877,2.5341054 55.653622,3.4330638 44,8.7707704 39.539669,10.813735 29.82744,17.298069 28.087269,19.394847 c -2.039655,2.457634 -0.517809,1.908666 2.524144,-0.910521 1.572464,-1.45731 3.415829,-2.293067 4.38158,-1.98655 0.916917,0.291018 5.087522,-1.051198 9.26801,-2.982702 C 55.986783,8.0974297 63.419692,6.7066267 77.5,7.2955848 c 12.848219,0.5374218 17.883158,1.8402518 29.21119,7.5586272 3.41123,1.72198 7.90921,4.576479 9.99552,6.343331 l 3.79329,3.212458 -2.832,-3.095306 c -1.5576,-1.702419 -2.40131,-3.361483 -1.87492,-3.686809 0.95317,-0.589096 8.41208,4.277017 9.6661,6.306064 0.36237,0.586328 0.9698,1.048183 1.34984,1.026345 0.38004,-0.02184 -1.50859,-2.063616 -4.19695,-4.537285 z m -11.56859,-4.588887 -2.39123,-1.936296 2.83729,0.514498 c 3.44606,0.624891 5.17786,2.11759 3.29503,2.840102 -0.74243,0.284896 -2.42592,-0.353341 -3.74109,-1.418304 z M 37,14 c 2.774491,-2.170238 4,-2.487395 4,-1.035184 0,1.132656 -3.290414,3.044954 -5.184259,3.012948 C 35.092084,15.965534 35.625,15.075541 37,14 Z m -2.50235,5.164316 C 33.782497,18.449164 31,19.891285 31,20.977089 c 0,0.658156 0.717449,0.591804 1.954522,-0.18076 1.074986,-0.671341 1.769394,-1.405746 1.543128,-1.632013 z"
         id="path18" />
      <path
         style="fill:#211d0c"
         d="M 0,75 V 0 h 75 75 v 75 75 H 75 0 Z m 92.346958,70.03914 C 125.21154,136.6338 147.03821,108.29012 146.98286,74.090037 146.94997,53.763911 140.38837,37.623642 126.30802,23.233913 112.36544,8.9849721 95.685256,2.105503 74.909963,2.0356215 54.011291,1.965325 38.501994,8.4226505 23.452739,23.459935 16.090166,30.816652 13.633718,34.082783 10.260905,41 3.9294041,53.985118 2.5304234,60.30573 2.6248045,75.5 c 0.070537,11.355682 0.4225306,14.011888 2.7828644,21 7.3069431,21.63327 24.5011011,39.34723 45.2822781,46.65123 8.421363,2.95987 12.619754,3.61671 23.90009,3.7392 7.05836,0.0767 12.393649,-0.47959 17.756921,-1.85129 z m -30.278272,-5.0619 C 47.403041,136.88329 34.488231,129.66339 24.75,119.1146 c -7.045165,-7.63157 -7.330712,-9.92058 -1.883929,-15.10198 7.555769,-7.187627 21.515677,-8.053031 33.637901,-2.08528 7.245138,3.56677 10.091999,6.8082 13.455293,15.32015 4.192666,10.61096 13.249569,16.09671 26.735457,16.19362 4.507098,0.0324 7.882098,0.36613 7.499998,0.74164 -0.3821,0.3755 -4.29472,1.89245 -8.69472,3.37098 -8.868493,2.98007 -25.186097,4.16298 -33.431314,2.42351 z m 47.319874,-13.88201 c -3.81385,-2.32563 -6.95226,-6.60718 -8.90961,-12.15489 C 98.711765,108.9316 98.543416,97.255979 100.16056,91.858443 101.63772,86.928125 107.51007,80 110.2119,80 c 12.67828,0 23.74627,-13.841673 23.81851,-29.787513 0.0342,-7.54163 0.73441,-7.115704 4.02485,2.448125 6.70256,19.481326 3.69483,41.079616 -8.19653,58.858668 -4.6667,6.97731 -14.09649,16.48523 -16.34155,16.47698 -0.55945,-0.002 -2.41733,-0.85752 -4.12862,-1.90103 z M 11.287645,97.746955 C 10.62085,96.275256 9.3230043,91.358454 8.4035434,86.820727 4.0046805,65.111446 11.525824,41.371189 27.792376,25.620473 c 5.690315,-5.509867 7.634277,-5.656681 13.174402,-0.994974 8.348579,7.024866 11.083621,23.659159 5.776263,35.130741 -2.290653,4.951129 -6.957335,9.239538 -10.069766,9.253529 -3.485463,0.01567 -11.889794,4.398189 -15.511527,8.08864 -4.774406,4.864994 -7.399998,10.510766 -8.074733,17.362977 -0.556505,5.651544 -0.650026,5.822314 -1.79937,3.285569 z m 56.06396,-8.839407 C 62.755918,87.576199 58.269452,81.979643 57.457533,76.565377 56.068649,67.303638 63.58583,60 74.507245,60 c 12.467486,0 18.875339,11.624337 12.840707,23.294028 -2.741014,5.300537 -12.053009,7.914668 -19.996347,5.61352 z M 94.826373,48.068611 C 86.26035,45.329941 80.995659,40.180119 79.4877,33.064609 78.389642,27.883276 69.83185,19.833367 62.469008,17.055933 57.564049,15.205669 55.073901,14.880868 48.5,15.233892 l -8,0.429607 6,-2.732853 C 66.299535,3.9124405 90.719345,5.3950891 109.41213,16.750355 116.7818,21.227193 128,32.080577 128,34.733746 c 0,3.436861 -4.32933,8.559817 -9.47084,11.206971 -3.94714,2.032222 -6.62437,2.602881 -13,2.770985 -4.41604,0.116437 -9.232292,-0.172954 -10.702787,-0.643091 z"
         id="path17" />
    </g>
  </g>
</svg>
